<svg
            width="20"
            height="20"
            viewBox="0 0 20 20"
            fill="none"
            xmlns="http://www.w3.org/2000/svg"
          >
            <path
              d="M19.2715 10.7089C18.4279 10.1537 17.8539 9.21135 17.2463 8.21377C17.175 8.0967 17.1034 7.97928 17.031 7.8617C18.1876 4.59491 16.619 1.96855 16.5497 1.85531L16.1316 1.17191L13.4199 4.32367C12.4423 3.89671 11.3109 3.68718 9.99998 3.68718C8.68912 3.68718 7.55764 3.89675 6.58003 4.32367L3.86827 1.17188L3.45027 1.85527C3.38105 1.96851 1.8123 4.59495 2.9689 7.86167C2.89656 7.97924 2.82496 8.0967 2.75367 8.21374C2.14601 9.21135 1.57203 10.1536 0.728397 10.7089L0 11.1884L0.720858 11.6791C0.770389 11.7128 5.68753 15.0639 6.80909 16.1854C7.16389 16.5402 7.44631 16.9084 7.71952 17.2644C8.33686 18.069 8.91998 18.829 9.99998 18.829C11.08 18.829 11.6631 18.069 12.2804 17.2644C12.5536 16.9084 12.836 16.5402 13.1909 16.1854C14.3124 15.0639 19.2295 11.7128 19.2791 11.6791L20 11.1884L19.2715 10.7089ZM15.8995 3.23175C16.1655 3.96683 16.4448 5.17042 16.1734 6.578C15.7957 6.07636 15.3645 5.59843 14.8336 5.17484C14.7132 5.07878 14.5897 4.98757 14.4633 4.90097L15.8995 3.23175ZM3.86905 4.02995C3.93671 3.72632 4.0196 3.45773 4.10116 3.23257L5.53667 4.90105C5.41022 4.98765 5.28679 5.07886 5.16644 5.17487C4.6348 5.59901 4.20312 6.07772 3.82503 6.58011C3.66249 5.74605 3.67683 4.8923 3.86905 4.02995ZM8.19752 15.9843C8.02846 15.7791 7.84323 15.5684 7.63459 15.3598C6.74471 14.4699 3.8412 12.4181 2.32007 11.3626C3.19788 11.0977 4.5639 10.7863 6.13401 10.7863C6.59753 10.7863 6.96487 10.9338 7.25706 11.2374C8.17084 12.1868 8.2353 14.3882 8.19752 15.9843ZM9.99998 17.6615C9.74686 17.6615 9.54006 17.5565 9.31986 17.3514C9.32361 17.2036 9.33014 17.0319 9.33736 16.8431C9.33908 16.7988 9.3408 16.7535 9.34252 16.7077H10.6575C10.6592 16.7535 10.661 16.7988 10.6626 16.8431C10.6698 17.0319 10.6764 17.2036 10.6801 17.3514C10.4599 17.5565 10.2531 17.6615 9.99998 17.6615ZM10.6267 15.5403H9.37334C9.38916 13.7704 9.22565 11.5992 8.09823 10.4278C7.58155 9.891 6.92073 9.61881 6.13405 9.61881C4.95362 9.61881 3.88464 9.77772 3.01917 9.97166C3.27765 9.59717 3.51581 9.2069 3.75077 8.82112C4.34694 7.84237 4.96343 6.83034 5.89456 6.08745C6.9344 5.25788 8.27729 4.8546 10 4.8546C11.7228 4.8546 13.0656 5.25784 14.1055 6.08745C15.0366 6.83034 15.6531 7.84241 16.2493 8.82112C16.4842 9.20686 16.7224 9.59717 16.9809 9.97166C16.1154 9.77772 15.0464 9.61881 13.866 9.61881C13.0793 9.61881 12.4185 9.891 11.9018 10.4278C10.7743 11.5992 10.6108 13.7704 10.6267 15.5403ZM12.3654 15.3599C12.1567 15.5685 11.9715 15.7791 11.8024 15.9843C11.7646 14.3882 11.8291 12.1868 12.7429 11.2374C13.0351 10.9338 13.4024 10.7863 13.8659 10.7863C15.4297 10.7863 16.7982 11.0984 17.6785 11.3635C16.157 12.4193 13.255 14.4702 12.3654 15.3599Z"
              fill="white"
            />
            <path
              d="M14.1416 11.4174C13.7727 11.4174 13.4734 11.7202 13.4734 12.0939C13.4734 12.4675 13.7726 12.7704 14.1416 12.7704C14.51 12.7704 14.8092 12.4675 14.8092 12.0939C14.8092 11.7202 14.51 11.4174 14.1416 11.4174Z"
              fill="white"
            />
            <path
              d="M5.85884 11.4174C5.48997 11.4174 5.19067 11.7202 5.19067 12.0939C5.19067 12.4675 5.48989 12.7704 5.85884 12.7704C6.22727 12.7704 6.52653 12.4675 6.52653 12.0939C6.52649 11.7202 6.22727 11.4174 5.85884 11.4174Z"
              fill="white"
            />
          </svg>